<!-- Logo generated by @-->
<svg width="77" height="72" viewBox="0 0 77 72"  fill="currentColor" xmlns="http://www.w3.org/2000/svg">
<path fill-rule="evenodd" clip-rule="evenodd" d="M56.8283 24.4872C60.9815 28.9529 63.5218 34.9392 63.5218 41.5188C63.5218 54.0476 54.3111 64.4251 42.2917 66.2493C40.4269 66.3202 38.557 66.3916 36.6568 66.4664C23.7053 65.5195 13.4919 54.7119 13.4919 41.5188C13.4919 27.7035 24.6915 16.5039 38.5069 16.5039C38.9104 16.5039 39.3117 16.5135 39.7105 16.5324C42.1399 16.7036 44.6228 17.2376 47.16 18.1446C50.3221 19.2749 53.0487 21.1439 55.6525 23.3141C56.0573 23.6978 56.4494 24.0885 56.8283 24.4872ZM19.8621 29.3761C19.9506 29.3366 19.9559 29.3521 19.9559 29.3521C19.9685 29.2818 19.9973 29.2093 20.0262 29.1367C20.1293 29.076 20.1198 29.0186 20.1198 29.0186C22.0064 26.233 24.5107 24.2258 27.358 22.6042C27.4793 22.5684 27.4965 22.5499 27.4965 22.5499C28.2687 22.1727 29.0159 21.7995 29.687 21.4642L30.6775 23.324C30.9611 23.4337 31.1601 23.4443 31.3591 23.4548C31.7757 23.3293 32.0427 23.1911 32.3098 23.0528C32.4731 22.9811 32.5097 22.9319 32.5462 22.8826C32.7801 22.6835 32.9229 22.5099 33.0657 22.3364C33.4861 21.5365 34.0824 21.2406 34.8624 21.2657C36.3992 21.3151 37.8155 20.9698 39.2496 20.3619C39.9382 20.07 40.7989 20.1354 41.622 20.198C41.7969 20.2113 41.97 20.2244 42.1394 20.234C42.8068 20.2718 42.7384 20.8238 42.5824 21.2955C42.2392 22.3336 41.1795 23.0304 39.8661 22.9733C38.9767 22.9347 38.0847 22.79 37.2104 22.6118C35.9822 22.3616 34.8202 22.4723 33.7005 23.0326C32.9909 23.435 32.4219 23.8206 31.8529 24.2062C31.5727 24.4621 31.4123 24.6607 31.2519 24.8594C31.101 25.1142 31.0516 25.3234 31.0022 25.5327C30.9203 25.8607 30.9153 26.0851 30.9103 26.3095C30.7806 26.553 30.6805 26.7764 30.587 26.9848C30.491 27.1987 30.4021 27.3968 30.2956 27.5851C29.0023 29.871 29.1744 31.5078 30.94 33.4987C30.9899 33.6147 30.9681 33.6279 30.9681 33.6279C32.2631 34.892 33.8431 34.9227 35.4886 34.678C35.7446 34.7909 35.9989 34.8831 36.2434 34.9717C36.7366 35.1504 37.1899 35.3146 37.5368 35.6057C38.7859 36.6539 39.81 37.9145 40.3159 39.516C40.4519 40.1441 40.5881 40.6428 40.7244 41.1416C40.7658 41.4744 40.8032 41.668 40.8406 41.8616C40.9353 42.2832 41.0322 42.5559 41.1292 42.8285C41.164 43.0095 41.1968 43.0642 41.2297 43.1188C41.3872 43.4606 41.5477 43.7051 41.7083 43.9495C41.7298 44.0733 41.743 44.0721 41.743 44.0721C41.9125 44.2895 42.0883 44.4954 42.2641 44.7013C42.4091 44.9531 42.5324 45.0887 42.6558 45.2242C42.7501 45.3656 42.8092 45.4019 42.8682 45.4381C43.1158 45.7504 43.3414 45.9587 43.5691 46.1645C45.2317 47.6678 47.4205 47.2361 48.4669 45.1286C48.7263 44.6062 48.8826 44.0326 49.0389 43.459C49.1103 43.1973 49.1816 42.9355 49.2628 42.6787C49.4295 42.2122 49.5155 41.8609 49.6014 41.5096C49.7496 40.4037 49.7743 39.3537 49.799 38.3038C49.1077 36.5294 49.0772 34.9428 49.72 33.2775C50.6799 30.7909 50.1795 29.5541 47.908 28.1491C47.3739 27.8187 46.8631 27.451 46.3522 27.0832C46.1188 26.9152 45.8855 26.7471 45.6499 26.5827L45.7476 26.3598C45.8408 26.3811 45.9351 26.3997 46.0293 26.4183C46.2345 26.4588 46.4397 26.4994 46.6353 26.5676C47.6874 26.9345 48.6356 26.811 49.1181 26.1602C49.7207 25.3475 49.3477 24.5727 48.9401 23.8208C48.7828 23.5307 48.6177 23.2448 48.4525 22.959C48.3781 22.8301 48.3036 22.7013 48.2299 22.5721L48.4016 22.3579C48.5927 22.4623 48.7859 22.5633 48.979 22.6644C49.3957 22.8824 49.8124 23.1003 50.2079 23.3517C55.0897 26.4547 58.3921 30.7418 59.8141 36.3835C59.9749 37.0218 59.8305 37.774 59.684 38.4419C59.5889 38.8757 59.4018 39.2892 59.2147 39.7028C59.1323 39.8848 59.05 40.0668 58.9754 40.2505C58.8182 40.6121 58.7537 40.8794 58.6891 41.1468C58.5691 41.5192 58.5017 41.7635 58.4342 42.0078C58.2543 42.4747 58.1711 42.8572 58.088 43.2397C57.8937 44.044 57.7673 44.7364 57.6409 45.4288C57.6012 45.6104 57.5588 45.7861 57.5176 45.9569C57.3763 46.5416 57.2489 47.0693 57.2938 47.582C57.3399 48.1084 57.5278 48.6239 57.7149 49.1374C57.7806 49.3178 57.8463 49.4979 57.9056 49.6781C58.4015 51.1833 57.8453 52.3772 56.9913 53.6212C53.0546 59.3561 47.5519 62.3846 40.749 63.2521C36.9108 63.7416 33.2179 63.1698 29.6367 61.7477C29.0231 61.504 28.6094 61.1835 28.5628 60.4453C28.5406 60.0925 28.4747 59.7402 28.409 59.3887C28.3203 58.9143 28.2319 58.4415 28.2515 57.9714C28.3013 56.7715 28.9699 55.7988 29.8826 55.0501C30.9842 54.1466 31.3897 53.0228 31.3621 51.617C31.3435 50.6665 31.4636 49.7103 31.583 48.7595C31.6023 48.6058 31.6216 48.4522 31.6403 48.2988C31.7895 47.0734 31.7358 45.9381 30.6275 45.1258C30.2424 44.9009 29.9123 44.7893 29.5823 44.6777C29.379 44.6289 29.2954 44.6352 29.2117 44.6414C29.0073 44.607 28.9235 44.6129 28.8397 44.6188C27.8242 44.438 26.93 44.2948 26.0358 44.1517C25.4436 43.8092 24.9596 43.5523 24.4757 43.2954L24.4754 43.2952C24.1777 43.0807 23.9319 42.9846 23.686 42.8885C23.245 42.5753 22.8574 42.3633 22.4698 42.1514C22.2084 41.9562 22.0253 41.8634 21.8423 41.7707C21.4052 41.5002 21.0461 41.3261 20.6845 41.1574C19.656 40.6774 18.6188 40.5751 17.5473 41.0385C17.3124 41.1401 17.0627 41.2075 16.751 41.2916C16.5882 41.3355 16.4085 41.384 16.2051 41.4443C15.9864 37.1406 17.3125 33.4497 19.4634 29.982C19.6063 29.8088 19.6475 29.7074 19.6888 29.6059C19.8106 29.491 19.8364 29.4336 19.8621 29.3761Z"/>
<path d="M54.4105 3.97223C50.393 7.12682 46.3978 10.2241 42.3801 13.3387C42.1255 11.7282 42.4296 10.1823 43.784 9.10031C45.4701 7.75347 47.2931 6.57913 49.0411 5.30846C51.2885 3.67473 53.5161 2.01377 55.7645 0.381281C56.0067 0.205385 56.3296 0.140591 56.6417 0.0876465C56.4154 1.69802 55.6596 2.94636 54.4105 3.97223Z"/>
<path d="M51.6175 12.1648C49.388 14.2236 47.464 15.4337 44.2637 14.8316C44.1869 14.8171 44.1262 14.7173 43.965 14.5753C48.339 12.2131 51.8942 8.93332 55.1391 5.19214C54.6237 7.78984 53.729 10.2544 51.6175 12.1648Z"/>
<circle cx="68.8738" cy="23.2876" r="0.988996"/>
<circle cx="75.0984" cy="35.5622" r="0.988996"/>
<circle cx="72.7132" cy="49.3498" r="0.988996"/>
<circle cx="70.0372" cy="60.6355" r="0.988996"/>
<circle cx="63.2308" cy="69.3618" r="0.988996"/>
<circle cx="50.4906" cy="69.9433" r="0.988996"/>
<circle cx="28.7335" cy="70.3508" r="0.988996"/>
<circle cx="14.1899" cy="68.9543" r="0.988996"/>
<circle cx="7.73257" cy="59.6465" r="0.988996"/>
<circle cx="1.97337" cy="49.3498" r="0.988996"/>
<circle cx="2.96237" cy="38.7038" r="0.988996"/>
<circle cx="8.31447" cy="27.2434" r="0.988996"/>
<circle cx="18.0295" cy="18.1684" r="0.988996"/>
<circle cx="14.0155" cy="15.0525" r="0.988996"/>
<circle cx="26.523" cy="8.71141" r="0.988996"/>
<circle cx="37.1852" cy="8.18797" r="0.988996"/>
<circle cx="59.7985" cy="13.3386" r="0.988996"/>
<circle cx="58.0158" cy="17.6394" r="0.581795"/>
<circle cx="65.1158" cy="26.0376" r="0.581795"/>
<circle cx="64.8016" cy="55.2031" r="0.581795"/>
<circle cx="59.1795" cy="65.1067" r="0.581795"/>
<circle cx="20.6561" cy="65.6885" r="0.581795"/>
<circle cx="16.1105" cy="62.6948" r="0.686469"/>
<circle cx="11.058" cy="55.1464" r="0.686469"/>
<circle cx="22.3744" cy="14.3659" r="0.686469"/>
<circle cx="28.1985" cy="12.3266" r="0.686469"/>
</svg>
